<svg xmlns="http://www.w3.org/2000/svg" xmlns:xlink="http://www.w3.org/1999/xlink" width="500" zoomAndPan="magnify" viewBox="0 0 375 374.999991" height="500" preserveAspectRatio="xMidYMid meet" version="1.2"><defs><clipPath id="2355bff351"><path d="M 141 0 L 232.917969 0 L 232.917969 51.707031 L 141 51.707031 Z M 141 0 "/></clipPath><clipPath id="f13bd551c5"><path d="M 133.125 337 L 161 337 L 161 374 L 133.125 374 Z M 133.125 337 "/></clipPath><clipPath id="9522222f0a"><path d="M 214.285156 337.734375 L 241.875 337.734375 L 241.875 374 L 214.285156 374 Z M 214.285156 337.734375 "/></clipPath></defs><g id="7720c1f0a9"><path style="fill:none;stroke-width:4;stroke-linecap:butt;stroke-linejoin:miter;stroke:#000000;stroke-opacity:1;stroke-miterlimit:4;" d="M 0.000011032 1.999991 L 160.000022 1.999991 " transform="matrix(0,0.75,-0.75,0,178.453118,125.999992)"/><g clip-rule="nonzero" clip-path="url(#2355bff351)"><path style=" stroke:none;fill-rule:evenodd;fill:#a51d2d;fill-opacity:1;" d="M 232.21875 50.769531 C 229.207031 5.867188 210.519531 -0.0273438 186.816406 -0.0273438 C 162.980469 -0.0273438 144.421875 5.867188 141.285156 50.769531 C 141.285156 51.019531 141.285156 51.269531 141.285156 51.394531 C 171.636719 51.394531 201.992188 51.394531 232.21875 51.394531 C 232.21875 51.269531 232.21875 51.019531 232.21875 50.769531 "/></g><path style=" stroke:none;fill-rule:evenodd;fill:#c82027;fill-opacity:1;" d="M 141.285156 195.890625 C 141.285156 244.050781 141.285156 292.21875 141.285156 340.382812 C 140.78125 343.644531 156.839844 373.871094 160.976562 375 L 212.652344 375 C 216.664062 373.871094 232.847656 343.644531 232.21875 340.382812 C 232.21875 292.21875 232.21875 244.050781 232.21875 195.890625 C 232.21875 147.726562 232.21875 99.5625 232.21875 51.394531 C 232.847656 48.132812 216.664062 17.910156 212.652344 16.777344 L 160.976562 16.777344 C 156.839844 17.910156 140.78125 48.132812 141.285156 51.394531 C 141.285156 99.5625 141.285156 147.726562 141.285156 195.890625 "/><path style=" stroke:none;fill-rule:evenodd;fill:#a51d2d;fill-opacity:1;" d="M 141.285156 301.371094 L 141.285156 340.382812 C 140.78125 343.644531 156.839844 373.871094 160.976562 375 L 212.652344 375 C 216.664062 373.871094 232.847656 343.644531 232.21875 340.382812 L 232.21875 301.371094 C 231.71875 306.265625 216.542969 334.488281 212.652344 335.613281 L 160.976562 335.613281 C 157.089844 334.488281 141.785156 306.265625 141.285156 301.371094 "/><path style=" stroke:none;fill-rule:nonzero;fill:#153d54;fill-opacity:1;" d="M 146.550781 321.066406 L 146.550781 340.757812 L 159.847656 366.222656 L 162.859375 346.402344 L 146.550781 321.066406 "/><path style=" stroke:none;fill-rule:nonzero;fill:#153d54;fill-opacity:1;" d="M 207.007812 341.386719 C 200.484375 341.386719 194.089844 341.386719 187.566406 341.386719 C 181.042969 341.386719 174.648438 341.386719 168.125 341.386719 C 167.5 345.148438 166.746094 349.160156 165.867188 353.554688 C 164.992188 358.316406 164.113281 363.460938 163.109375 368.980469 C 171.261719 368.980469 179.414062 368.980469 187.566406 368.980469 C 195.722656 368.980469 203.875 368.980469 212.027344 368.980469 C 211.019531 363.460938 210.144531 358.316406 209.265625 353.554688 C 208.386719 349.160156 207.636719 345.148438 207.007812 341.386719 "/><path style=" stroke:none;fill-rule:nonzero;fill:#153d54;fill-opacity:1;" d="M 215.285156 366.222656 L 228.582031 340.757812 L 228.582031 321.066406 L 212.277344 346.402344 L 215.285156 366.222656 "/><path style=" stroke:none;fill-rule:nonzero;fill:#153d54;fill-opacity:1;" d="M 159.847656 26.4375 L 146.550781 51.898438 L 146.550781 71.589844 L 162.859375 46.128906 L 159.847656 26.4375 "/><path style=" stroke:none;fill-rule:nonzero;fill:#153d54;fill-opacity:1;" d="M 165.867188 38.980469 C 166.746094 43.371094 167.5 47.382812 168.125 51.269531 C 174.648438 51.269531 181.042969 51.269531 187.566406 51.269531 C 194.089844 51.269531 200.484375 51.269531 207.007812 51.269531 C 207.636719 47.382812 208.386719 43.371094 209.265625 38.980469 C 210.144531 34.214844 211.019531 29.070312 212.027344 23.550781 C 203.875 23.550781 195.722656 23.550781 187.566406 23.550781 C 179.414062 23.550781 171.261719 23.550781 163.109375 23.550781 C 164.113281 29.070312 164.992188 34.214844 165.867188 38.980469 "/><path style=" stroke:none;fill-rule:nonzero;fill:#153d54;fill-opacity:1;" d="M 228.582031 71.589844 L 228.582031 51.898438 L 215.285156 26.4375 L 212.277344 46.128906 L 228.582031 71.589844 "/><path style=" stroke:none;fill-rule:evenodd;fill:#4e4d4b;fill-opacity:1;" d="M 152.949219 287.953125 L 152.949219 93.539062 C 152.949219 77.859375 164.113281 65.195312 177.78125 65.195312 L 195.34375 65.195312 C 209.015625 65.195312 220.304688 77.859375 220.304688 93.539062 L 220.304688 287.953125 C 220.304688 303.503906 209.015625 316.300781 195.34375 316.300781 L 177.78125 316.300781 C 164.113281 316.300781 152.949219 303.503906 152.949219 287.953125 "/><g clip-rule="nonzero" clip-path="url(#f13bd551c5)"><path style=" stroke:none;fill-rule:nonzero;fill:#373332;fill-opacity:1;" d="M 145.171875 372.617188 C 145.296875 371.988281 144.917969 371.238281 144.167969 371.113281 L 141.285156 370.609375 C 144.042969 354.054688 160.472656 342.765625 160.472656 342.765625 L 157.214844 337.746094 C 157.214844 337.746094 141.03125 352.046875 138.148438 370.109375 L 134.761719 369.484375 C 134.007812 369.355469 133.382812 369.734375 133.253906 370.484375 C 133.132812 371.113281 133.507812 371.863281 134.257812 371.988281 L 143.667969 373.621094 C 144.421875 373.746094 145.046875 373.371094 145.171875 372.617188 "/></g><g clip-rule="nonzero" clip-path="url(#9522222f0a)"><path style=" stroke:none;fill-rule:nonzero;fill:#373332;fill-opacity:1;" d="M 233.847656 370.609375 L 230.964844 371.113281 C 230.210938 371.238281 229.835938 371.988281 229.960938 372.617188 C 230.085938 373.371094 230.714844 373.746094 231.339844 373.621094 L 240.871094 371.988281 C 241.625 371.863281 242.003906 371.113281 241.875 370.484375 C 241.753906 369.734375 241.125 369.355469 240.371094 369.484375 L 236.984375 370.109375 C 234.101562 352.046875 217.921875 337.746094 217.921875 337.746094 L 214.660156 342.765625 C 214.660156 342.765625 231.089844 354.054688 233.847656 370.609375 "/></g><path style=" stroke:none;fill-rule:evenodd;fill:#15445e;fill-opacity:1;" d="M 173.144531 368.980469 L 203.242188 341.386719 L 168.125 341.386719 L 163.109375 368.980469 L 173.144531 368.980469 "/><path style=" stroke:none;fill-rule:evenodd;fill:#15445e;fill-opacity:1;" d="M 168.125 51.269531 L 174.648438 51.394531 L 203.996094 23.550781 L 163.109375 23.550781 L 168.125 51.269531 "/><path style=" stroke:none;fill-rule:evenodd;fill:#656561;fill-opacity:1;" d="M 173.394531 315.796875 L 173.394531 65.570312 L 199.730469 65.570312 L 199.730469 315.796875 L 173.394531 315.796875 "/><path style=" stroke:none;fill-rule:evenodd;fill:#fbc807;fill-opacity:1;" d="M 200.613281 171.554688 L 200.613281 209.9375 L 172.640625 209.9375 L 172.640625 171.554688 Z M 164.613281 162.277344 L 164.613281 219.09375 C 164.613281 220.851562 165.992188 222.230469 167.75 222.230469 L 205.503906 222.230469 C 207.132812 222.230469 208.515625 220.851562 208.515625 219.09375 L 208.515625 162.277344 C 208.515625 160.644531 207.132812 159.136719 205.503906 159.136719 L 167.75 159.136719 C 165.992188 159.136719 164.613281 160.644531 164.613281 162.277344 "/><path style=" stroke:none;fill-rule:nonzero;fill:#373332;fill-opacity:1;" d="M 200.613281 209.9375 L 200.613281 139.320312 L 195.96875 139.320312 L 195.96875 209.9375 L 200.613281 209.9375 "/><path style=" stroke:none;fill-rule:nonzero;fill:#373332;fill-opacity:1;" d="M 172.640625 209.9375 L 177.28125 209.9375 L 177.28125 139.320312 L 172.640625 139.320312 L 172.640625 209.9375 "/><path style=" stroke:none;fill-rule:nonzero;fill:#373332;fill-opacity:1;" d="M 188.945312 209.9375 L 188.945312 139.320312 L 184.304688 139.320312 L 184.304688 209.9375 L 188.945312 209.9375 "/><path style=" stroke:none;fill-rule:evenodd;fill:#444140;fill-opacity:1;" d="M 161.730469 137.5625 L 161.730469 134.804688 L 211.523438 134.804688 L 211.523438 137.5625 C 211.523438 138.570312 210.769531 139.320312 209.765625 139.320312 L 163.359375 139.320312 C 162.480469 139.320312 161.730469 138.570312 161.730469 137.5625 "/><path style=" stroke:none;fill-rule:evenodd;fill:#373332;fill-opacity:1;" d="M 147.554688 133.050781 L 147.554688 130.289062 L 225.570312 130.289062 L 225.570312 133.050781 C 225.570312 134.050781 224.816406 134.804688 223.941406 134.804688 L 149.3125 134.804688 C 148.308594 134.804688 147.554688 134.050781 147.554688 133.050781 "/></g></svg>